<svg width="134" height="48" viewBox="0 0 134 48" fill="none" xmlns="http://www.w3.org/2000/svg">
<path fill-rule="evenodd" clip-rule="evenodd" d="M18.293 3.01141L42.1092 3.01142L48.3965 13.8534H36.247L30.4322 23.9999L18.293 3.01141ZM48.3965 13.8534L60.5861 34.8735L36.7211 34.8735L48.3965 13.8534ZM0 13.1265H23.8649L12.1896 34.1467L0 13.1265ZM12.1896 34.1467H24.3391L30.1539 24.0001L42.2931 44.9886H18.4769L12.1896 34.1467Z" fill="url(#paint0_linear_5102_1501)"/>
<path d="M90.0163 4.45455V19H87.3601L81.032 9.84517H80.9254V19H77.8501V4.45455H80.549L86.8274 13.6023H86.9553V4.45455H90.0163ZM95.6112 19.206C94.9151 19.206 94.2949 19.0852 93.7504 18.8438C93.2058 18.5975 92.775 18.2353 92.4577 17.7571C92.1452 17.2741 91.989 16.6728 91.989 15.9531C91.989 15.3471 92.1003 14.8381 92.3228 14.4261C92.5453 14.0142 92.8484 13.6828 93.2319 13.4318C93.6154 13.1809 94.051 12.9915 94.5387 12.8636C95.0311 12.7358 95.5472 12.6458 96.087 12.5938C96.7215 12.5275 97.2328 12.4659 97.6211 12.4091C98.0094 12.3475 98.2911 12.2576 98.4663 12.1392C98.6415 12.0208 98.729 11.8456 98.729 11.6136V11.571C98.729 11.1212 98.587 10.7732 98.3029 10.527C98.0236 10.2808 97.6258 10.1577 97.1097 10.1577C96.5652 10.1577 96.132 10.2784 95.81 10.5199C95.488 10.7566 95.275 11.0549 95.1708 11.4148L92.3725 11.1875C92.5146 10.5246 92.7939 9.9517 93.2106 9.46875C93.6272 8.98106 94.1647 8.60701 94.8228 8.34659C95.4857 8.08144 96.2527 7.94886 97.1239 7.94886C97.73 7.94886 98.31 8.01989 98.864 8.16193C99.4227 8.30398 99.9175 8.52415 100.348 8.82244C100.784 9.12074 101.127 9.50426 101.378 9.97301C101.629 10.437 101.755 10.9934 101.755 11.642V19H98.8853V17.4872H98.8001C98.6249 17.8281 98.3905 18.1288 98.0969 18.3892C97.8034 18.6449 97.4506 18.8461 97.0387 18.9929C96.6268 19.1349 96.1509 19.206 95.6112 19.206ZM96.4776 17.1179C96.9227 17.1179 97.3157 17.0303 97.6566 16.8551C97.9975 16.6752 98.265 16.4337 98.4592 16.1307C98.6533 15.8277 98.7504 15.4844 98.7504 15.1009V13.9432C98.6557 14.0047 98.5255 14.0616 98.3597 14.1136C98.1987 14.161 98.0165 14.206 97.8129 14.2486C97.6093 14.2865 97.4057 14.322 97.2021 14.3551C96.9985 14.3835 96.8138 14.4096 96.6481 14.4332C96.293 14.4853 95.9828 14.5682 95.7177 14.6818C95.4525 14.7955 95.2466 14.9493 95.0998 15.1435C94.953 15.3329 94.8796 15.5696 94.8796 15.8537C94.8796 16.2656 95.0288 16.5805 95.3271 16.7983C95.6301 17.0114 96.0136 17.1179 96.4776 17.1179ZM113.882 8.09091L110.068 19H106.659L102.845 8.09091H106.041L108.306 15.8963H108.42L110.679 8.09091H113.882ZM115.43 19V8.09091H118.456V19H115.43ZM116.95 6.68466C116.5 6.68466 116.114 6.53551 115.792 6.23722C115.475 5.93419 115.316 5.57197 115.316 5.15057C115.316 4.7339 115.475 4.37642 115.792 4.07812C116.114 3.77509 116.5 3.62358 116.95 3.62358C117.4 3.62358 117.783 3.77509 118.1 4.07812C118.422 4.37642 118.583 4.7339 118.583 5.15057C118.583 5.57197 118.422 5.93419 118.1 6.23722C117.783 6.53551 117.4 6.68466 116.95 6.68466ZM129.956 11.2017L127.186 11.3722C127.139 11.1354 127.037 10.9223 126.881 10.733C126.724 10.5388 126.518 10.3849 126.263 10.2713C126.012 10.1529 125.711 10.0938 125.361 10.0938C124.892 10.0938 124.497 10.1932 124.175 10.392C123.853 10.5862 123.692 10.8466 123.692 11.1733C123.692 11.4337 123.796 11.6539 124.004 11.8338C124.213 12.0137 124.57 12.1581 125.077 12.267L127.051 12.6648C128.112 12.8826 128.902 13.233 129.423 13.7159C129.944 14.1989 130.205 14.8333 130.205 15.6193C130.205 16.3343 129.994 16.9616 129.572 17.5014C129.156 18.0412 128.583 18.4626 127.854 18.7656C127.129 19.0639 126.294 19.2131 125.347 19.2131C123.902 19.2131 122.752 18.9124 121.895 18.3111C121.043 17.705 120.543 16.8812 120.396 15.8395L123.372 15.6832C123.462 16.1236 123.68 16.4598 124.026 16.6918C124.371 16.919 124.814 17.0327 125.354 17.0327C125.884 17.0327 126.31 16.9309 126.632 16.7273C126.959 16.5189 127.125 16.2514 127.129 15.9247C127.125 15.6501 127.009 15.4252 126.781 15.25C126.554 15.0701 126.204 14.9328 125.73 14.8381L123.841 14.4616C122.776 14.2486 121.982 13.8793 121.462 13.3537C120.946 12.8281 120.688 12.1581 120.688 11.3438C120.688 10.643 120.877 10.0393 121.256 9.53267C121.639 9.02604 122.177 8.63542 122.868 8.3608C123.564 8.08617 124.378 7.94886 125.311 7.94886C126.689 7.94886 127.773 8.24006 128.564 8.82244C129.359 9.40483 129.823 10.1979 129.956 11.2017ZM80.3572 43H77.0618L82.0831 28.4545H86.0462L91.0604 43H87.7649L84.1214 31.7784H84.0078L80.3572 43ZM80.1513 37.2827H87.9354V39.6832H80.1513V37.2827ZM101.577 35.2017L98.8072 35.3722C98.7598 35.1354 98.658 34.9223 98.5018 34.733C98.3455 34.5388 98.1396 34.3849 97.8839 34.2713C97.6329 34.1529 97.3323 34.0938 96.9819 34.0938C96.5131 34.0938 96.1178 34.1932 95.7958 34.392C95.4738 34.5862 95.3129 34.8466 95.3129 35.1733C95.3129 35.4337 95.417 35.6539 95.6254 35.8338C95.8337 36.0137 96.1912 36.1581 96.6978 36.267L98.6722 36.6648C99.7328 36.8826 100.524 37.233 101.044 37.7159C101.565 38.1989 101.826 38.8333 101.826 39.6193C101.826 40.3343 101.615 40.9616 101.194 41.5014C100.777 42.0412 100.204 42.4626 99.4748 42.7656C98.7504 43.0639 97.9147 43.2131 96.9677 43.2131C95.5236 43.2131 94.373 42.9124 93.516 42.3111C92.6637 41.705 92.1642 40.8812 92.0174 39.8395L94.9933 39.6832C95.0832 40.1236 95.301 40.4598 95.6467 40.6918C95.9923 40.919 96.435 41.0327 96.9748 41.0327C97.5051 41.0327 97.9312 40.9309 98.2532 40.7273C98.5799 40.5189 98.7456 40.2514 98.7504 39.9247C98.7456 39.6501 98.6296 39.4252 98.4023 39.25C98.1751 39.0701 97.8247 38.9328 97.3512 38.8381L95.462 38.4616C94.3967 38.2486 93.6036 37.8793 93.0827 37.3537C92.5666 36.8281 92.3086 36.1581 92.3086 35.3438C92.3086 34.643 92.498 34.0393 92.8768 33.5327C93.2603 33.026 93.7977 32.6354 94.489 32.3608C95.185 32.0862 95.9994 31.9489 96.9322 31.9489C98.31 31.9489 99.3943 32.2401 100.185 32.8224C100.98 33.4048 101.444 34.1979 101.577 35.2017ZM112.808 35.2017L110.038 35.3722C109.99 35.1354 109.888 34.9223 109.732 34.733C109.576 34.5388 109.37 34.3849 109.114 34.2713C108.863 34.1529 108.563 34.0938 108.212 34.0938C107.744 34.0938 107.348 34.1932 107.026 34.392C106.704 34.5862 106.543 34.8466 106.543 35.1733C106.543 35.4337 106.647 35.6539 106.856 35.8338C107.064 36.0137 107.422 36.1581 107.928 36.267L109.903 36.6648C110.963 36.8826 111.754 37.233 112.275 37.7159C112.796 38.1989 113.056 38.8333 113.056 39.6193C113.056 40.3343 112.845 40.9616 112.424 41.5014C112.007 42.0412 111.434 42.4626 110.705 42.7656C109.981 43.0639 109.145 43.2131 108.198 43.2131C106.754 43.2131 105.603 42.9124 104.746 42.3111C103.894 41.705 103.395 40.8812 103.248 39.8395L106.224 39.6832C106.314 40.1236 106.531 40.4598 106.877 40.6918C107.223 40.919 107.665 41.0327 108.205 41.0327C108.736 41.0327 109.162 40.9309 109.484 40.7273C109.81 40.5189 109.976 40.2514 109.981 39.9247C109.976 39.6501 109.86 39.4252 109.633 39.25C109.406 39.0701 109.055 38.9328 108.582 38.8381L106.692 38.4616C105.627 38.2486 104.834 37.8793 104.313 37.3537C103.797 36.8281 103.539 36.1581 103.539 35.3438C103.539 34.643 103.728 34.0393 104.107 33.5327C104.491 33.026 105.028 32.6354 105.719 32.3608C106.415 32.0862 107.23 31.9489 108.163 31.9489C109.54 31.9489 110.625 32.2401 111.415 32.8224C112.211 33.4048 112.675 34.1979 112.808 35.2017ZM119.933 43.2131C118.811 43.2131 117.845 42.9858 117.035 42.5312C116.23 42.072 115.61 41.4233 115.174 40.5852C114.739 39.7424 114.521 38.7457 114.521 37.5952C114.521 36.473 114.739 35.4882 115.174 34.6406C115.61 33.7931 116.223 33.1326 117.014 32.6591C117.809 32.1856 118.742 31.9489 119.812 31.9489C120.532 31.9489 121.202 32.0649 121.822 32.2969C122.447 32.5241 122.992 32.8674 123.456 33.3267C123.924 33.786 124.289 34.3636 124.549 35.0597C124.81 35.7509 124.94 36.5606 124.94 37.4886V38.3196H115.728V36.4446H122.092C122.092 36.009 121.997 35.6231 121.808 35.2869C121.618 34.9508 121.356 34.688 121.02 34.4986C120.688 34.3045 120.302 34.2074 119.862 34.2074C119.403 34.2074 118.995 34.3139 118.64 34.527C118.29 34.7353 118.015 35.017 117.816 35.3722C117.618 35.7225 117.516 36.1132 117.511 36.544V38.3267C117.511 38.8665 117.61 39.3329 117.809 39.7259C118.013 40.1188 118.299 40.4219 118.669 40.6349C119.038 40.848 119.476 40.9545 119.983 40.9545C120.319 40.9545 120.627 40.9072 120.906 40.8125C121.185 40.7178 121.424 40.5758 121.623 40.3864C121.822 40.197 121.974 39.965 122.078 39.6903L124.876 39.875C124.734 40.5473 124.443 41.1345 124.002 41.6364C123.567 42.1335 123.003 42.5218 122.312 42.8011C121.626 43.0758 120.833 43.2131 119.933 43.2131ZM132.717 32.0909V34.3636H126.147V32.0909H132.717ZM127.639 29.4773H130.664V39.6477C130.664 39.9271 130.707 40.1449 130.792 40.3011C130.877 40.4527 130.996 40.5592 131.147 40.6207C131.304 40.6823 131.484 40.7131 131.687 40.7131C131.829 40.7131 131.971 40.7012 132.113 40.6776C132.255 40.6491 132.364 40.6278 132.44 40.6136L132.916 42.8651C132.764 42.9124 132.551 42.9669 132.277 43.0284C132.002 43.0947 131.668 43.1349 131.275 43.1491C130.546 43.1776 129.907 43.0805 129.358 42.858C128.813 42.6354 128.389 42.2898 128.086 41.821C127.783 41.3523 127.634 40.7604 127.639 40.0455V29.4773Z" fill="black"/>
<defs>
<linearGradient id="paint0_linear_5102_1501" x1="5.47294" y1="36.015" x2="46.5878" y2="0.825206" gradientUnits="userSpaceOnUse">
<stop offset="0.118519" stop-color="#D4151C"/>
<stop offset="1" stop-color="#D35400"/>
</linearGradient>
</defs>
</svg>
